<?xml version="1.0" encoding="utf-8"?>
<!-- Generator: Adobe Illustrator 28.2.0, SVG Export Plug-In . SVG Version: 6.00 Build 0)  -->
<svg version="1.1" id="AU_Formal_Horizontal" xmlns="http://www.w3.org/2000/svg" xmlns:xlink="http://www.w3.org/1999/xlink"
	 x="0px" y="0px" viewBox="0 0 119.4 104.5" style="enable-background:new 0 0 119.4 104.5;" xml:space="preserve">
<style type="text/css">
	.st0{fill:#FFFFFF;}
</style>
<path class="st0" d="M32.8,79.2c7,5.2,21.5,5.7,26.9,5.7s20-0.5,26.9-5.7H70.9V63h9.6l-4.3-7.7H43.3L38.9,63h9.6v16.2H32.8z
	 M40.8,61.9l3.1-5.5h31.6l3.1,5.5h-8.8v18.4h12.7c-7.7,3.3-19.5,3.6-22.8,3.6s-15.1-0.2-22.8-3.6h12.7V61.9L40.8,61.9z"/>
<path class="st0" d="M52.7,38.6h14.1l-7-12.5L52.7,38.6z M54.5,37.5l5.2-9.2l5.2,9.2H54.5z"/>
<path class="st0" d="M86.5,30l4.5,8v-8H86.5z M89.9,33.8l-1.6-2.8h1.6V33.8z"/>
<path class="st0" d="M119.4,31.6V13.4H81.2v3.9L71.4,0H47.9l-9.8,17.4v-3.9H0v18.2h7.2v30.3H0.3v18.4h7.3c1.8,8.8,10.9,24.2,52,24.2
	s50.2-15.4,52-24.2h7.3V61.9h-6.9V31.6H119.4z M117.9,63v16.2h-7.1c-1.3,8.2-9.3,24.2-51.1,24.2S9.9,87.4,8.6,79.2H1.4V63h6.9V30.5
	H1.1v-16h36v7L48.6,1.1h22.2l11.5,20.4v-7h36v16H111V63H117.9z"/>
<path class="st0" d="M32.9,30h-4.5v8L32.9,30z M29.5,31.1H31l-1.6,2.8L29.5,31.1z"/>
<polygon class="st0" points="115,17.8 85.6,17.8 85.6,27.2 93.7,27.2 93.7,41.7 105.7,63 107.8,63 107.8,27.2 115,27.2 "/>
<path class="st0" d="M59.7,88.2c-11.5,0-26-1.9-31.6-9H11.9c2,10.9,15.4,20.9,47.8,20.9s45.8-10.1,47.8-20.9H91.3
	C85.7,86.3,71.1,88.2,59.7,88.2z"/>
<polygon class="st0" points="11.6,63 13.7,63 25.7,41.7 25.7,27.2 33.8,27.2 33.8,17.8 4.4,17.8 4.4,27.2 11.6,27.2 "/>
<path class="st0" d="M68.9,4.4H50.5L15.6,66.3H4.7v9.7h40.5v-9.7H33.3l8-14.3H78l8,14.3H74.2v9.7h40.5v-9.7h-10.9L68.9,4.4z
	 M47,41.9l12.7-22.4l12.7,22.4H47z"/>
</svg>
