<?xml version="1.0" encoding="UTF-8"?>
<svg id="uuid-ef832fb3-6a98-4784-8033-06da2a73f124" data-name="Layer 2" xmlns="http://www.w3.org/2000/svg" viewBox="0 0 545.22 800">
  <defs>
    <style>
      .uuid-c52fb184-0666-4f36-a0d4-698c4e2327a7 {
        stroke: #fff;
        stroke-miterlimit: 10;
        stroke-width: 21.81px;
      }

      .uuid-c52fb184-0666-4f36-a0d4-698c4e2327a7, .uuid-b97311b1-8ee6-49ae-b4e8-7d2a47f1ab4d {
        fill: #fff;
      }

      .uuid-b97311b1-8ee6-49ae-b4e8-7d2a47f1ab4d {
        stroke-width: 0px;
      }
    </style>
  </defs>
  <g id="uuid-151c76d2-2e42-418a-9c04-b4e6bc44892f" data-name="Logo">
    <g>
      <path class="uuid-c52fb184-0666-4f36-a0d4-698c4e2327a7" d="M509.23,548.74c-3.76-9.49-7.91-18.51-12.4-27.07-20.06-38.38-46.83-67.86-76.94-90.41-.72-.55-1.43-1.07-2.15-1.6-21.16-15.56-43.97-27.76-67.18-37.3-.47-.21-.94-.38-1.41-.58-38.25-15.54-77.68-23.85-113.02-28.07-15.42-1.86-30.09-2.94-43.53-3.47-16.21-.66-30.67-.57-42.62-.17-22.29.77-35.86,2.63-35.86,2.63,1.78,11.18,3.8,21.94,6.01,32.32,65.93,309.89,311.93,268.49,311.93,268.49l61.64,93.06,40.16-40.2c2.71-67.86-6.83-122.94-24.63-167.63ZM368.05,594.21c-84.14,0-152.36-68.34-152.36-152.61,0-27.83,7.42-53.93,20.46-76.41,34.8,4.15,73.54,12.29,111.28,27.38-16.93,8.21-28.61,25.61-28.61,45.76,0,28.08,22.73,50.87,50.79,50.87s50.78-22.78,50.78-50.87c0-1.84-.1-3.66-.3-5.44,30.03,22.54,56.73,51.98,76.76,90.27-27.01,42.69-74.6,71.05-128.79,71.05Z"/>
      <path class="uuid-b97311b1-8ee6-49ae-b4e8-7d2a47f1ab4d" d="M181.02,387.06l-52.53,15.22-8.36-7.26-91.01-78.99s-11.8,3.57-29.12,14.12V52.68l53.51,39.91-17.76,168.14,114.24,99.34,31.03,26.99Z"/>
      <polygon class="uuid-b97311b1-8ee6-49ae-b4e8-7d2a47f1ab4d" points="306.21 756.57 114.13 681.91 0 486.13 0 466.24 306.21 756.57"/>
      <path class="uuid-b97311b1-8ee6-49ae-b4e8-7d2a47f1ab4d" d="M154.95,800s-85.74-9.69-154.95-59.19v-68.83c33.21,44.18,82.34,89.43,154.95,128.02Z"/>
      <polygon class="uuid-b97311b1-8ee6-49ae-b4e8-7d2a47f1ab4d" points="436.48 387.06 352.57 172.52 443.1 0 277.64 176.07 169.31 2.21 211.26 245.51 436.48 387.06"/>
      <path class="uuid-b97311b1-8ee6-49ae-b4e8-7d2a47f1ab4d" d="M501.8,1.95s-152.35,163.67-44.16,314.07c0,0-6.88-157.04,44.16-314.07Z"/>
    </g>
  </g>
</svg>